<svg width="1440" height="56" viewBox="0 0 1440 56" fill="none" xmlns="http://www.w3.org/2000/svg">
<path d="M-53 2.09308C-31.108 20.5861 0.594995 21.7011 23.732 4.79108C45.971 22.8651 77.688 23.3781 100.501 6.03308H100.503C123.08 23.6821 154.802 23.5941 177.281 5.8201L177.282 5.81909C200.19 23.0371 231.904 22.3481 254.042 4.15109H254.043C277.274 20.9321 308.969 19.6411 330.759 1.0271" stroke="black" stroke-width="1.0556" stroke-miterlimit="10"/>
<path d="M31.554 23.356C31.554 31.936 28.204 38.886 24.064 38.886C22.694 38.886 21.414 38.1261 20.324 36.7961C18.084 34.1061 16.584 29.096 16.584 23.356C16.584 14.786 19.934 7.83606 24.064 7.83606C28.204 7.83606 31.554 14.786 31.554 23.356Z" fill="#AAC482"/>
<path opacity="0.5" d="M31.554 23.356C31.554 31.936 28.204 38.886 24.064 38.886C22.694 38.886 21.414 38.1261 20.324 36.7961C29.194 36.1461 31.554 23.356 31.554 23.356Z" fill="#AAC482"/>
<g opacity="0.5">
<path d="M18.373 23.9371C18.373 23.9371 18.332 23.7141 18.26 23.3251C18.216 22.9351 18.115 22.3731 18.101 21.6981C18.096 21.0241 18.067 20.2291 18.149 19.3841C18.218 18.5381 18.375 17.6431 18.579 16.7581C18.808 15.8791 19.083 15.0071 19.433 14.2251C19.757 13.4321 20.225 12.7641 20.569 12.1801C20.942 11.6051 21.359 11.1991 21.63 10.9131C21.924 10.6421 22.102 10.5031 22.102 10.5031C22.102 10.5031 21.99 10.7011 21.827 11.0561C21.64 11.3961 21.444 11.9171 21.186 12.5131C20.952 13.1261 20.699 13.836 20.461 14.61C20.227 15.385 19.982 16.2121 19.79 17.0551C19.571 17.8921 19.401 18.7421 19.234 19.5421C19.078 20.3431 18.902 21.0941 18.8 21.7461C18.702 22.3981 18.561 22.944 18.504 23.33C18.42 23.716 18.373 23.9371 18.373 23.9371Z" fill="#AAC482"/>
</g>
<path d="M26.675 4.05505H21.46C20.898 4.05505 20.442 4.51106 20.442 5.07306V9.77206H27.694V5.07306C27.694 4.51006 27.238 4.05505 26.675 4.05505Z" fill="#1D262D"/>
<path d="M146.377 38.7911C146.377 47.3711 143.027 54.3211 138.887 54.3211C137.517 54.3211 136.237 53.5611 135.147 52.2311C132.907 49.5411 131.407 44.5311 131.407 38.7911C131.407 30.2211 134.757 23.2711 138.887 23.2711C143.027 23.2711 146.377 30.2211 146.377 38.7911Z" fill="#AAC482"/>
<path opacity="0.5" d="M146.377 38.7911C146.377 47.3711 143.027 54.3211 138.887 54.3211C137.517 54.3211 136.237 53.5611 135.147 52.2311C144.017 51.5811 146.377 38.7911 146.377 38.7911Z" fill="#AAC482"/>
<g opacity="0.5">
<path d="M133.197 39.3721C133.197 39.3721 133.156 39.1491 133.084 38.7601C133.04 38.3701 132.939 37.8081 132.925 37.1331C132.92 36.4591 132.891 35.6641 132.973 34.8201C133.042 33.9741 133.199 33.0791 133.403 32.1941C133.632 31.3151 133.907 30.4431 134.257 29.6611C134.581 28.8681 135.049 28.2001 135.393 27.6161C135.766 27.0411 136.183 26.6351 136.454 26.3491C136.748 26.0781 136.926 25.9391 136.926 25.9391C136.926 25.9391 136.814 26.1371 136.651 26.4921C136.464 26.8321 136.268 27.3531 136.01 27.9491C135.776 28.5621 135.523 29.2731 135.285 30.0461C135.051 30.8201 134.806 31.6481 134.614 32.4911C134.395 33.3281 134.225 34.1781 134.058 34.9781C133.902 35.7791 133.726 36.5301 133.624 37.1821C133.526 37.8341 133.385 38.3801 133.328 38.7661C133.243 39.1511 133.197 39.3721 133.197 39.3721Z" fill="#AAC482"/>
</g>
<path d="M141.499 19.4901H136.283C135.721 19.4901 135.265 19.9461 135.265 20.5081V25.2071H142.517V20.5081C142.517 19.9461 142.061 19.4901 141.499 19.4901Z" fill="#1D262D"/>
<path d="M301.483 35.0261C301.483 43.6061 298.133 50.5561 293.993 50.5561C292.623 50.5561 291.343 49.7961 290.253 48.4661C288.013 45.7761 286.513 40.7661 286.513 35.0261C286.513 26.4561 289.863 19.5061 293.993 19.5061C298.133 19.5071 301.483 26.4561 301.483 35.0261Z" fill="#AAC482"/>
<path opacity="0.5" d="M301.483 35.0261C301.483 43.6061 298.133 50.5561 293.993 50.5561C292.623 50.5561 291.343 49.7961 290.253 48.4661C299.123 47.8161 301.483 35.0261 301.483 35.0261Z" fill="#AAC482"/>
<g opacity="0.5">
<path d="M288.302 35.6071C288.302 35.6071 288.261 35.3841 288.189 34.9951C288.145 34.6051 288.044 34.0431 288.03 33.3681C288.025 32.6941 287.996 31.8991 288.078 31.0551C288.147 30.2091 288.304 29.3141 288.508 28.4291C288.737 27.5501 289.012 26.6781 289.362 25.8961C289.686 25.1031 290.154 24.4351 290.498 23.8511C290.871 23.2761 291.288 22.8701 291.559 22.5841C291.853 22.3131 292.031 22.1741 292.031 22.1741C292.031 22.1741 291.919 22.3721 291.756 22.7271C291.569 23.0671 291.373 23.5881 291.115 24.1841C290.881 24.7971 290.628 25.5071 290.39 26.2811C290.156 27.0551 289.911 27.8831 289.718 28.7261C289.499 29.5631 289.329 30.4131 289.162 31.2131C289.006 32.0141 288.83 32.7651 288.728 33.4171C288.63 34.0691 288.489 34.6151 288.432 35.0011C288.349 35.3871 288.302 35.6071 288.302 35.6071Z" fill="#AAC482"/>
</g>
<path d="M296.604 15.7251H291.388C290.826 15.7251 290.37 16.1811 290.37 16.7431V21.4421H297.622V16.7431C297.623 16.1811 297.167 15.7251 296.604 15.7251Z" fill="#1D262D"/>
<path d="M107.789 24.3911C107.789 32.9711 104.439 39.9211 100.299 39.9211C98.9291 39.9211 97.6491 39.1611 96.5591 37.8311C94.3191 35.1411 92.8191 30.1311 92.8191 24.3911C92.8191 15.8211 96.1691 8.87109 100.299 8.87109C104.439 8.87109 107.789 15.8211 107.789 24.3911Z" fill="#F4C159"/>
<path opacity="0.5" d="M107.789 24.3911C107.789 32.9711 104.439 39.9211 100.299 39.9211C98.9291 39.9211 97.6491 39.1611 96.5591 37.8311C105.429 37.1811 107.789 24.3911 107.789 24.3911Z" fill="#AAC482"/>
<g opacity="0.5">
<path d="M94.6091 24.9721C94.6091 24.9721 94.568 24.7491 94.496 24.3601C94.452 23.9701 94.351 23.4081 94.337 22.7331C94.332 22.0591 94.303 21.2641 94.385 20.4201C94.454 19.5741 94.611 18.6791 94.815 17.7941C95.044 16.9151 95.319 16.0431 95.669 15.2611C95.993 14.4681 96.461 13.8001 96.805 13.2161C97.178 12.6411 97.595 12.2351 97.866 11.9491C98.16 11.6781 98.338 11.5391 98.338 11.5391C98.338 11.5391 98.226 11.7371 98.063 12.0921C97.876 12.4321 97.68 12.9531 97.422 13.5491C97.188 14.1621 96.935 14.8721 96.697 15.6461C96.463 16.4201 96.218 17.2481 96.026 18.0911C95.807 18.9281 95.637 19.7781 95.47 20.5781C95.314 21.3791 95.138 22.1301 95.035 22.7821C94.937 23.4341 94.796 23.9801 94.739 24.3661C94.655 24.7511 94.6091 24.9721 94.6091 24.9721Z" fill="#AAC482"/>
</g>
<path d="M102.91 5.09009H97.6951C97.1331 5.09009 96.6771 5.54609 96.6771 6.10809V10.8071H103.929V6.10809C103.929 5.54609 103.473 5.09009 102.91 5.09009Z" fill="#1D262D"/>
<path d="M338.425 20.301C338.425 28.881 335.075 35.831 330.935 35.831C329.565 35.831 328.285 35.071 327.195 33.741C324.955 31.051 323.455 26.041 323.455 20.301C323.455 11.731 326.805 4.78101 330.935 4.78101C335.075 4.78101 338.425 11.731 338.425 20.301Z" fill="#F4C159"/>
<path opacity="0.5" d="M338.425 20.301C338.425 28.881 335.075 35.831 330.935 35.831C329.565 35.831 328.285 35.071 327.195 33.741C336.065 33.091 338.425 20.301 338.425 20.301Z" fill="#AAC482"/>
<g opacity="0.5">
<path d="M325.245 20.882C325.245 20.882 325.204 20.659 325.132 20.27C325.088 19.88 324.987 19.318 324.973 18.643C324.968 17.969 324.939 17.174 325.021 16.33C325.09 15.484 325.247 14.589 325.451 13.704C325.68 12.825 325.955 11.953 326.305 11.171C326.629 10.378 327.097 9.71001 327.441 9.12601C327.814 8.55101 328.231 8.14501 328.502 7.85901C328.796 7.58801 328.974 7.44901 328.974 7.44901C328.974 7.44901 328.862 7.64701 328.699 8.00201C328.512 8.34201 328.316 8.86301 328.058 9.45901C327.824 10.072 327.571 10.782 327.333 11.556C327.099 12.33 326.854 13.158 326.662 14.001C326.443 14.838 326.273 15.688 326.106 16.488C325.95 17.289 325.774 18.04 325.671 18.692C325.573 19.344 325.432 19.89 325.375 20.276C325.291 20.661 325.245 20.882 325.245 20.882Z" fill="#AAC482"/>
</g>
<path d="M333.546 1H328.331C327.769 1 327.313 1.45601 327.313 2.01801V6.71701H334.565V2.01801C334.565 1.45601 334.109 1 333.546 1Z" fill="#1D262D"/>
<path d="M721.97 19.301C721.97 27.881 718.62 34.831 714.48 34.831C713.11 34.831 711.83 34.071 710.74 32.741C708.5 30.051 707 25.041 707 19.301C707 10.731 710.35 3.78101 714.48 3.78101C718.62 3.78101 721.97 10.731 721.97 19.301Z" fill="#F4C159"/>
<path opacity="0.5" d="M721.97 19.301C721.97 27.881 718.62 34.831 714.48 34.831C713.11 34.831 711.83 34.071 710.74 32.741C719.61 32.091 721.97 19.301 721.97 19.301Z" fill="#AAC482"/>
<g opacity="0.5">
<path d="M708.79 19.882C708.79 19.882 708.749 19.659 708.677 19.27C708.633 18.88 708.532 18.318 708.518 17.643C708.513 16.969 708.484 16.174 708.566 15.33C708.635 14.484 708.792 13.589 708.996 12.704C709.225 11.825 709.5 10.953 709.85 10.171C710.174 9.37799 710.642 8.71001 710.986 8.12601C711.359 7.55101 711.776 7.14501 712.047 6.85901C712.341 6.58801 712.519 6.44901 712.519 6.44901C712.519 6.44901 712.407 6.64701 712.244 7.00201C712.057 7.34201 711.861 7.86301 711.603 8.45901C711.369 9.07201 711.116 9.782 710.878 10.556C710.644 11.33 710.399 12.158 710.207 13.001C709.988 13.838 709.818 14.688 709.651 15.488C709.495 16.289 709.319 17.04 709.216 17.692C709.118 18.344 708.977 18.89 708.92 19.276C708.836 19.661 708.79 19.882 708.79 19.882Z" fill="#AAC482"/>
</g>
<path d="M717.091 0H711.876C711.314 0 710.858 0.456005 710.858 1.01801V5.71701H718.11V1.01801C718.11 0.456005 717.654 0 717.091 0Z" fill="#1D262D"/>
<path d="M224.871 37.9441C224.871 46.5241 221.521 53.4741 217.381 53.4741C216.011 53.4741 214.731 52.7141 213.641 51.3841C211.401 48.6941 209.901 43.6841 209.901 37.9441C209.901 29.3741 213.251 22.4241 217.381 22.4241C221.521 22.4241 224.871 29.3741 224.871 37.9441Z" fill="#F4C159"/>
<path opacity="0.5" d="M224.871 37.9441C224.871 46.5241 221.521 53.4741 217.381 53.4741C216.011 53.4741 214.731 52.7141 213.641 51.3841C222.511 50.7341 224.871 37.9441 224.871 37.9441Z" fill="#AAC482"/>
<g opacity="0.5">
<path d="M211.691 38.5251C211.691 38.5251 211.65 38.3021 211.578 37.9131C211.534 37.5231 211.433 36.9611 211.419 36.2861C211.414 35.6121 211.385 34.8171 211.467 33.9731C211.536 33.1271 211.693 32.232 211.897 31.347C212.126 30.468 212.401 29.5961 212.751 28.8141C213.075 28.0211 213.543 27.3531 213.887 26.7691C214.26 26.1941 214.677 25.7881 214.948 25.5021C215.242 25.2311 215.42 25.0921 215.42 25.0921C215.42 25.0921 215.308 25.2901 215.145 25.6451C214.958 25.9851 214.762 26.5061 214.504 27.1021C214.27 27.7151 214.017 28.4251 213.779 29.1991C213.545 29.9731 213.3 30.8011 213.107 31.6441C212.888 32.4811 212.718 33.3311 212.551 34.1311C212.395 34.9321 212.219 35.6831 212.117 36.3351C212.019 36.9871 211.878 37.5331 211.821 37.9191C211.737 38.3041 211.691 38.5251 211.691 38.5251Z" fill="#AAC482"/>
</g>
<path d="M219.993 18.6431H214.777C214.215 18.6431 213.759 19.0991 213.759 19.6611V24.36H221.011V19.6611C221.011 19.0991 220.555 18.6431 219.993 18.6431Z" fill="#1D262D"/>
<path d="M184.965 24.0151C184.965 32.5951 181.615 39.5451 177.475 39.5451C176.105 39.5451 174.825 38.7851 173.735 37.4551C171.495 34.7651 169.995 29.7551 169.995 24.0151C169.995 15.4451 173.345 8.49512 177.475 8.49512C181.616 8.49512 184.965 15.4451 184.965 24.0151Z" fill="#BC4B5F"/>
<path opacity="0.5" d="M184.965 24.0151C184.965 32.5951 181.615 39.5451 177.475 39.5451C176.105 39.5451 174.825 38.7851 173.735 37.4551C182.606 36.8051 184.965 24.0151 184.965 24.0151Z" fill="#AAC482"/>
<g opacity="0.5">
<path d="M171.785 24.5961C171.785 24.5961 171.744 24.3731 171.672 23.9841C171.628 23.5941 171.527 23.0321 171.513 22.3571C171.508 21.6831 171.479 20.8881 171.561 20.0441C171.63 19.1981 171.787 18.3031 171.991 17.4171C172.22 16.5381 172.495 15.6661 172.845 14.8841C173.169 14.0911 173.637 13.4231 173.981 12.8391C174.354 12.2641 174.771 11.8581 175.042 11.5721C175.336 11.3011 175.514 11.1621 175.514 11.1621C175.514 11.1621 175.402 11.3601 175.239 11.7151C175.053 12.0551 174.856 12.5761 174.598 13.1721C174.363 13.7851 174.111 14.4951 173.873 15.2691C173.639 16.0441 173.394 16.8711 173.201 17.7141C172.982 18.5511 172.812 19.4011 172.645 20.2011C172.489 21.0021 172.313 21.7531 172.211 22.4051C172.113 23.0571 171.972 23.6031 171.915 23.9891C171.831 24.3751 171.785 24.5961 171.785 24.5961Z" fill="#AAC482"/>
</g>
<path d="M180.087 4.71313H174.872C174.31 4.71313 173.854 5.16911 173.854 5.73111V10.4301H181.106V5.73111C181.105 5.16911 180.649 4.71313 180.087 4.71313Z" fill="#1D262D"/>
<path d="M261.765 22.132C261.765 30.712 258.415 37.662 254.275 37.662C252.905 37.662 251.625 36.9021 250.535 35.5721C248.295 32.8821 246.795 27.872 246.795 22.132C246.795 13.562 250.145 6.61206 254.275 6.61206C258.415 6.61206 261.765 13.562 261.765 22.132Z" fill="#008683"/>
<path opacity="0.5" d="M261.765 22.132C261.765 30.712 258.415 37.662 254.275 37.662C252.905 37.662 251.625 36.9021 250.535 35.5721C259.405 34.9221 261.765 22.132 261.765 22.132Z" fill="#AAC482"/>
<g opacity="0.5">
<path d="M248.585 22.7131C248.585 22.7131 248.544 22.4901 248.472 22.1011C248.428 21.7111 248.327 21.1491 248.313 20.4741C248.308 19.8001 248.279 19.0051 248.361 18.1611C248.43 17.3151 248.587 16.4201 248.791 15.5351C249.02 14.6561 249.295 13.7841 249.645 13.0021C249.97 12.2091 250.437 11.5411 250.781 10.9571C251.154 10.3821 251.571 9.97606 251.842 9.69006C252.136 9.41906 252.314 9.28006 252.314 9.28006C252.314 9.28006 252.202 9.47807 252.039 9.83307C251.852 10.1731 251.656 10.6941 251.398 11.2901C251.163 11.9031 250.911 12.6131 250.673 13.3871C250.439 14.1611 250.194 14.9891 250.001 15.8321C249.782 16.6691 249.612 17.5191 249.445 18.3191C249.289 19.1201 249.113 19.871 249.011 20.524C248.913 21.176 248.772 21.7221 248.715 22.1081C248.631 22.4921 248.585 22.7131 248.585 22.7131Z" fill="#AAC482"/>
</g>
<path d="M256.887 2.83105H251.671C251.109 2.83105 250.653 3.28706 250.653 3.84906V8.54807H257.905V3.84906C257.905 3.28706 257.449 2.83105 256.887 2.83105Z" fill="#1D262D"/>
<path d="M72.4012 37.9441C72.4012 46.5241 69.0511 53.4741 64.9111 53.4741C63.5411 53.4741 62.2612 52.7141 61.1712 51.3841C58.9312 48.6941 57.4312 43.6841 57.4312 37.9441C57.4312 29.3741 60.7811 22.4241 64.9111 22.4241C69.0511 22.4241 72.4012 29.3741 72.4012 37.9441Z" fill="#008683"/>
<path opacity="0.5" d="M72.4011 37.9441C72.4011 46.5241 69.0511 53.4741 64.9111 53.4741C63.5411 53.4741 62.2611 52.7141 61.1711 51.3841C70.0411 50.7341 72.4011 37.9441 72.4011 37.9441Z" fill="#AAC482"/>
<g opacity="0.5">
<path d="M59.2201 38.5251C59.2201 38.5251 59.1791 38.3021 59.1071 37.9131C59.0631 37.5231 58.9621 36.9611 58.9481 36.2861C58.9431 35.6121 58.9141 34.8171 58.9961 33.9731C59.0651 33.1271 59.2221 32.232 59.4261 31.347C59.6551 30.468 59.9301 29.5961 60.2801 28.8141C60.6041 28.0211 61.0721 27.3531 61.4161 26.7691C61.7891 26.1941 62.2061 25.7881 62.4771 25.5021C62.7711 25.2311 62.9491 25.0921 62.9491 25.0921C62.9491 25.0921 62.8371 25.2901 62.6741 25.6451C62.4871 25.9851 62.2911 26.5061 62.0331 27.1021C61.7991 27.7151 61.5461 28.4251 61.3081 29.1991C61.0741 29.9731 60.8291 30.8011 60.6371 31.6441C60.4181 32.4811 60.2481 33.3311 60.0811 34.1311C59.9251 34.9321 59.7491 35.6831 59.6471 36.3351C59.5491 36.9871 59.4081 37.5331 59.3511 37.9191C59.2671 38.3041 59.2201 38.5251 59.2201 38.5251Z" fill="#AAC482"/>
</g>
<path d="M67.5221 18.6431H62.3061C61.7441 18.6431 61.2881 19.0991 61.2881 19.6611V24.36H68.5401V19.6611C68.5411 19.0991 68.0851 18.6431 67.5221 18.6431Z" fill="#1D262D"/>
<path d="M330.455 1.06592C352.347 19.5589 384.05 20.6739 407.187 3.76392C429.426 21.8379 461.143 22.3509 483.956 5.00592H483.958C506.535 22.6549 538.257 22.5669 560.736 4.79294L560.737 4.79193C583.645 22.0099 615.359 21.3209 637.497 3.12393H637.498C660.729 19.9049 692.165 20.114 713.955 1.5" stroke="black" stroke-width="1.0556" stroke-miterlimit="10"/>
<path d="M415.009 22.3289C415.009 30.9089 411.659 37.8589 407.519 37.8589C406.149 37.8589 404.869 37.099 403.779 35.769C401.539 33.079 400.039 28.0689 400.039 22.3289C400.039 13.7589 403.389 6.80896 407.519 6.80896C411.659 6.80896 415.009 13.7589 415.009 22.3289Z" fill="#AAC482"/>
<path opacity="0.5" d="M415.009 22.3289C415.009 30.9089 411.659 37.8589 407.519 37.8589C406.149 37.8589 404.869 37.099 403.779 35.769C412.649 35.119 415.009 22.3289 415.009 22.3289Z" fill="#AAC482"/>
<g opacity="0.5">
<path d="M401.828 22.91C401.828 22.91 401.787 22.687 401.715 22.298C401.671 21.908 401.57 21.346 401.556 20.671C401.551 19.997 401.522 19.202 401.604 18.357C401.673 17.511 401.83 16.616 402.034 15.731C402.263 14.852 402.538 13.98 402.888 13.198C403.212 12.405 403.68 11.737 404.024 11.153C404.397 10.578 404.814 10.172 405.085 9.88596C405.379 9.61496 405.557 9.47595 405.557 9.47595C405.557 9.47595 405.445 9.67396 405.282 10.029C405.095 10.369 404.899 10.89 404.641 11.486C404.407 12.099 404.154 12.8089 403.916 13.5829C403.682 14.3579 403.437 15.185 403.245 16.028C403.026 16.865 402.856 17.715 402.689 18.515C402.533 19.316 402.357 20.067 402.255 20.719C402.157 21.371 402.016 21.9169 401.959 22.3029C401.875 22.6889 401.828 22.91 401.828 22.91Z" fill="#AAC482"/>
</g>
<path d="M410.13 3.02795H404.915C404.353 3.02795 403.897 3.48396 403.897 4.04596V8.74496H411.149V4.04596C411.149 3.48296 410.693 3.02795 410.13 3.02795Z" fill="#1D262D"/>
<path d="M529.832 37.764C529.832 46.344 526.482 53.294 522.342 53.294C520.972 53.294 519.692 52.534 518.602 51.204C516.362 48.514 514.862 43.504 514.862 37.764C514.862 29.194 518.212 22.244 522.342 22.244C526.482 22.244 529.832 29.194 529.832 37.764Z" fill="#AAC482"/>
<path opacity="0.5" d="M529.832 37.764C529.832 46.344 526.482 53.294 522.342 53.294C520.972 53.294 519.692 52.534 518.602 51.204C527.472 50.554 529.832 37.764 529.832 37.764Z" fill="#AAC482"/>
<g opacity="0.5">
<path d="M516.652 38.345C516.652 38.345 516.611 38.122 516.539 37.733C516.495 37.343 516.394 36.781 516.38 36.106C516.375 35.432 516.346 34.637 516.428 33.793C516.497 32.947 516.654 32.052 516.858 31.167C517.087 30.288 517.362 29.416 517.712 28.634C518.036 27.841 518.504 27.173 518.848 26.589C519.221 26.014 519.638 25.608 519.909 25.322C520.203 25.051 520.381 24.912 520.381 24.912C520.381 24.912 520.269 25.11 520.106 25.465C519.919 25.805 519.723 26.326 519.465 26.922C519.231 27.535 518.978 28.246 518.74 29.019C518.506 29.793 518.261 30.621 518.069 31.464C517.85 32.301 517.68 33.151 517.513 33.951C517.357 34.752 517.181 35.503 517.079 36.155C516.981 36.807 516.84 37.353 516.783 37.739C516.698 38.124 516.652 38.345 516.652 38.345Z" fill="#AAC482"/>
</g>
<path d="M524.954 18.463H519.738C519.176 18.463 518.72 18.919 518.72 19.481V24.18H525.972V19.481C525.972 18.919 525.516 18.463 524.954 18.463Z" fill="#1D262D"/>
<path d="M684.938 33.999C684.938 42.579 681.588 49.529 677.448 49.529C676.078 49.529 674.798 48.769 673.708 47.439C671.468 44.749 669.968 39.739 669.968 33.999C669.968 25.429 673.318 18.479 677.448 18.479C681.588 18.48 684.938 25.429 684.938 33.999Z" fill="#AAC482"/>
<path opacity="0.5" d="M684.938 33.999C684.938 42.579 681.588 49.529 677.448 49.529C676.078 49.529 674.798 48.769 673.708 47.439C682.578 46.789 684.938 33.999 684.938 33.999Z" fill="#AAC482"/>
<g opacity="0.5">
<path d="M671.757 34.58C671.757 34.58 671.716 34.357 671.644 33.968C671.6 33.578 671.499 33.016 671.485 32.341C671.48 31.667 671.451 30.872 671.533 30.028C671.602 29.182 671.759 28.287 671.963 27.402C672.192 26.523 672.467 25.651 672.817 24.869C673.141 24.076 673.609 23.408 673.953 22.824C674.326 22.249 674.743 21.843 675.014 21.557C675.308 21.286 675.486 21.147 675.486 21.147C675.486 21.147 675.374 21.345 675.211 21.7C675.024 22.04 674.828 22.561 674.57 23.157C674.336 23.77 674.083 24.48 673.845 25.254C673.611 26.028 673.366 26.856 673.173 27.699C672.954 28.536 672.784 29.386 672.617 30.186C672.461 30.987 672.285 31.738 672.183 32.39C672.085 33.042 671.944 33.588 671.887 33.974C671.804 34.36 671.757 34.58 671.757 34.58Z" fill="#AAC482"/>
</g>
<path d="M680.059 14.698H674.843C674.281 14.698 673.825 15.154 673.825 15.716V20.415H681.077V15.716C681.078 15.154 680.622 14.698 680.059 14.698Z" fill="#1D262D"/>
<path d="M491.244 23.364C491.244 31.944 487.894 38.894 483.754 38.894C482.384 38.894 481.104 38.134 480.014 36.804C477.774 34.114 476.274 29.104 476.274 23.364C476.274 14.794 479.624 7.84399 483.754 7.84399C487.894 7.84399 491.244 14.794 491.244 23.364Z" fill="#F4C159"/>
<path opacity="0.5" d="M491.244 23.364C491.244 31.944 487.894 38.894 483.754 38.894C482.384 38.894 481.104 38.134 480.014 36.804C488.884 36.154 491.244 23.364 491.244 23.364Z" fill="#AAC482"/>
<g opacity="0.5">
<path d="M478.064 23.945C478.064 23.945 478.023 23.722 477.951 23.333C477.907 22.943 477.806 22.381 477.792 21.706C477.787 21.032 477.758 20.237 477.84 19.393C477.909 18.547 478.066 17.652 478.27 16.767C478.499 15.888 478.774 15.016 479.124 14.234C479.448 13.441 479.916 12.773 480.26 12.189C480.633 11.614 481.05 11.208 481.321 10.922C481.615 10.651 481.793 10.512 481.793 10.512C481.793 10.512 481.681 10.71 481.518 11.065C481.331 11.405 481.135 11.926 480.877 12.522C480.643 13.135 480.39 13.845 480.152 14.619C479.918 15.393 479.673 16.221 479.481 17.064C479.262 17.901 479.092 18.751 478.925 19.551C478.769 20.352 478.593 21.103 478.49 21.755C478.392 22.407 478.251 22.953 478.194 23.339C478.11 23.724 478.064 23.945 478.064 23.945Z" fill="#AAC482"/>
</g>
<path d="M486.365 4.06299H481.15C480.588 4.06299 480.132 4.51899 480.132 5.08099V9.78H487.384V5.08099C487.384 4.51899 486.928 4.06299 486.365 4.06299Z" fill="#1D262D"/>
<path d="M608.326 36.917C608.326 45.497 604.976 52.447 600.836 52.447C599.466 52.447 598.186 51.687 597.096 50.357C594.856 47.667 593.356 42.657 593.356 36.917C593.356 28.347 596.706 21.397 600.836 21.397C604.976 21.397 608.326 28.347 608.326 36.917Z" fill="#F4C159"/>
<path opacity="0.5" d="M608.326 36.917C608.326 45.497 604.976 52.447 600.836 52.447C599.466 52.447 598.186 51.687 597.096 50.357C605.966 49.707 608.326 36.917 608.326 36.917Z" fill="#AAC482"/>
<g opacity="0.5">
<path d="M595.146 37.498C595.146 37.498 595.105 37.275 595.033 36.886C594.989 36.496 594.888 35.934 594.874 35.259C594.869 34.585 594.84 33.79 594.922 32.946C594.991 32.1 595.148 31.2049 595.352 30.3199C595.581 29.4409 595.856 28.569 596.206 27.787C596.53 26.994 596.998 26.326 597.342 25.742C597.715 25.167 598.132 24.761 598.403 24.475C598.697 24.204 598.875 24.065 598.875 24.065C598.875 24.065 598.763 24.263 598.6 24.618C598.413 24.958 598.217 25.479 597.959 26.075C597.725 26.688 597.472 27.398 597.234 28.172C597 28.946 596.755 29.774 596.562 30.617C596.343 31.454 596.173 32.304 596.006 33.104C595.85 33.905 595.674 34.656 595.572 35.308C595.474 35.96 595.333 36.506 595.276 36.892C595.192 37.277 595.146 37.498 595.146 37.498Z" fill="#AAC482"/>
</g>
<path d="M603.448 17.616H598.232C597.67 17.616 597.214 18.072 597.214 18.634V23.3329H604.466V18.634C604.466 18.072 604.01 17.616 603.448 17.616Z" fill="#1D262D"/>
<path d="M568.42 22.988C568.42 31.568 565.07 38.518 560.93 38.518C559.56 38.518 558.28 37.758 557.19 36.428C554.95 33.738 553.45 28.728 553.45 22.988C553.45 14.418 556.8 7.46802 560.93 7.46802C565.071 7.46802 568.42 14.418 568.42 22.988Z" fill="#BC4B5F"/>
<path opacity="0.5" d="M568.42 22.988C568.42 31.568 565.07 38.518 560.93 38.518C559.56 38.518 558.28 37.758 557.19 36.428C566.061 35.778 568.42 22.988 568.42 22.988Z" fill="#AAC482"/>
<g opacity="0.5">
<path d="M555.24 23.569C555.24 23.569 555.199 23.346 555.127 22.957C555.083 22.567 554.982 22.005 554.968 21.33C554.963 20.656 554.934 19.861 555.016 19.017C555.085 18.171 555.242 17.276 555.446 16.39C555.675 15.511 555.95 14.639 556.3 13.857C556.624 13.064 557.092 12.396 557.436 11.812C557.809 11.237 558.226 10.831 558.497 10.545C558.791 10.274 558.969 10.135 558.969 10.135C558.969 10.135 558.857 10.333 558.694 10.688C558.508 11.028 558.311 11.549 558.053 12.145C557.818 12.758 557.566 13.468 557.328 14.242C557.094 15.017 556.849 15.844 556.656 16.687C556.437 17.524 556.267 18.374 556.1 19.174C555.944 19.975 555.768 20.726 555.666 21.378C555.568 22.03 555.427 22.576 555.37 22.962C555.286 23.348 555.24 23.569 555.24 23.569Z" fill="#AAC482"/>
</g>
<path d="M563.542 3.68604H558.327C557.765 3.68604 557.309 4.14201 557.309 4.70401V9.40302H564.561V4.70401C564.56 4.14201 564.104 3.68604 563.542 3.68604Z" fill="#1D262D"/>
<path d="M374.392 33.9149C374.164 42.4919 370.63 49.3499 366.492 49.2399C365.123 49.2039 363.863 48.4099 362.809 47.0509C360.641 44.3019 359.275 39.2539 359.428 33.5159C359.656 24.9489 363.189 18.0909 367.318 18.1999C371.455 18.3119 374.619 25.3479 374.392 33.9149Z" fill="#BC4B5F"/>
<path opacity="0.5" d="M374.392 33.9149C374.164 42.4919 370.63 49.3499 366.492 49.2399C365.123 49.2039 363.863 48.4099 362.809 47.0509C371.693 46.6379 374.392 33.9149 374.392 33.9149Z" fill="#AAC482"/>
<g opacity="0.5">
<path d="M361.2 34.1459C361.2 34.1459 361.165 33.9219 361.103 33.5309C361.07 33.1399 360.983 32.5759 360.987 31.8999C361 31.2259 360.992 30.4309 361.096 29.5889C361.187 28.7449 361.368 27.8549 361.596 26.9749C361.848 26.1019 362.146 25.2379 362.517 24.4649C362.862 23.6809 363.348 23.0249 363.707 22.4509C364.095 21.8859 364.522 21.4909 364.801 21.2119C365.102 20.9489 365.283 20.8139 365.283 20.8139C365.283 20.8139 365.166 21.0079 364.993 21.3599C364.798 21.6949 364.588 22.2109 364.313 22.7989C364.062 23.4049 363.791 24.1089 363.532 24.8759C363.277 25.6439 363.011 26.4639 362.796 27.3019C362.555 28.1329 362.363 28.9779 362.174 29.7729C361.997 30.5689 361.801 31.3149 361.681 31.9649C361.566 32.6139 361.41 33.1559 361.342 33.5399C361.252 33.9259 361.2 34.1459 361.2 34.1459Z" fill="#AAC482"/>
</g>
<path d="M370.028 14.4909L364.814 14.3519C364.252 14.3369 363.784 14.7809 363.769 15.3429L363.644 20.0409L370.893 20.2339L371.018 15.5359C371.034 14.9739 370.59 14.5059 370.028 14.4909Z" fill="#1D262D"/>
<path d="M645.22 21.1049C645.22 29.6849 641.87 36.6349 637.73 36.6349C636.36 36.6349 635.08 35.875 633.99 34.545C631.75 31.855 630.25 26.8449 630.25 21.1049C630.25 12.535 633.6 5.58496 637.73 5.58496C641.87 5.58496 645.22 12.535 645.22 21.1049Z" fill="#008683"/>
<path opacity="0.5" d="M645.22 21.1049C645.22 29.6849 641.87 36.6349 637.73 36.6349C636.36 36.6349 635.08 35.875 633.99 34.545C642.86 33.895 645.22 21.1049 645.22 21.1049Z" fill="#AAC482"/>
<g opacity="0.5">
<path d="M632.04 21.686C632.04 21.686 631.999 21.463 631.927 21.074C631.883 20.684 631.782 20.122 631.768 19.447C631.763 18.773 631.734 17.978 631.816 17.134C631.885 16.288 632.042 15.393 632.246 14.508C632.475 13.629 632.75 12.757 633.1 11.975C633.425 11.182 633.892 10.514 634.236 9.92996C634.609 9.35496 635.026 8.94896 635.297 8.66296C635.591 8.39196 635.769 8.25296 635.769 8.25296C635.769 8.25296 635.657 8.45097 635.494 8.80597C635.307 9.14597 635.111 9.66697 634.853 10.263C634.618 10.876 634.366 11.586 634.128 12.36C633.894 13.134 633.649 13.962 633.456 14.805C633.237 15.642 633.067 16.492 632.9 17.292C632.744 18.093 632.568 18.8439 632.466 19.4969C632.368 20.1489 632.227 20.695 632.17 21.081C632.086 21.465 632.04 21.686 632.04 21.686Z" fill="#AAC482"/>
</g>
<path d="M640.342 1.80396H635.126C634.564 1.80396 634.108 2.25996 634.108 2.82196V7.52097H641.36V2.82196C641.36 2.25996 640.904 1.80396 640.342 1.80396Z" fill="#1D262D"/>
<path d="M455.856 36.917C455.856 45.497 452.506 52.447 448.366 52.447C446.996 52.447 445.716 51.687 444.626 50.357C442.386 47.667 440.886 42.657 440.886 36.917C440.886 28.347 444.236 21.397 448.366 21.397C452.506 21.397 455.856 28.347 455.856 36.917Z" fill="#008683"/>
<path opacity="0.5" d="M455.856 36.917C455.856 45.497 452.506 52.447 448.366 52.447C446.996 52.447 445.716 51.687 444.626 50.357C453.496 49.707 455.856 36.917 455.856 36.917Z" fill="#AAC482"/>
<g opacity="0.5">
<path d="M442.675 37.498C442.675 37.498 442.634 37.275 442.562 36.886C442.518 36.496 442.417 35.934 442.403 35.259C442.398 34.585 442.369 33.79 442.451 32.946C442.52 32.1 442.677 31.2049 442.881 30.3199C443.11 29.4409 443.385 28.569 443.735 27.787C444.059 26.994 444.527 26.326 444.871 25.742C445.244 25.167 445.661 24.761 445.932 24.475C446.226 24.204 446.404 24.065 446.404 24.065C446.404 24.065 446.292 24.263 446.129 24.618C445.942 24.958 445.746 25.479 445.488 26.075C445.254 26.688 445.001 27.398 444.763 28.172C444.529 28.946 444.284 29.774 444.092 30.617C443.873 31.454 443.703 32.304 443.536 33.104C443.38 33.905 443.204 34.656 443.102 35.308C443.004 35.96 442.863 36.506 442.806 36.892C442.722 37.277 442.675 37.498 442.675 37.498Z" fill="#AAC482"/>
</g>
<path d="M450.977 17.616H445.761C445.199 17.616 444.743 18.072 444.743 18.634V23.3329H451.995V18.634C451.996 18.072 451.54 17.616 450.977 17.616Z" fill="#1D262D"/>
<path d="M718 3.09308C739.892 21.5861 771.595 22.7011 794.732 5.79108C816.971 23.8651 848.688 24.3781 871.501 7.03308H871.503C894.08 24.6821 925.802 24.5941 948.281 6.8201L948.282 6.81909C971.19 24.0371 1002.9 23.3481 1025.04 5.15109H1025.04C1048.27 21.9321 1079.97 20.6411 1101.76 2.0271" stroke="black" stroke-width="1.0556" stroke-miterlimit="10"/>
<path d="M802.554 24.356C802.554 32.936 799.204 39.886 795.064 39.886C793.694 39.886 792.414 39.1261 791.324 37.7961C789.084 35.1061 787.584 30.096 787.584 24.356C787.584 15.786 790.934 8.83606 795.064 8.83606C799.204 8.83606 802.554 15.786 802.554 24.356Z" fill="#AAC482"/>
<path opacity="0.5" d="M802.554 24.356C802.554 32.936 799.204 39.886 795.064 39.886C793.694 39.886 792.414 39.1261 791.324 37.7961C800.194 37.1461 802.554 24.356 802.554 24.356Z" fill="#AAC482"/>
<g opacity="0.5">
<path d="M789.373 24.9371C789.373 24.9371 789.332 24.7141 789.26 24.3251C789.216 23.9351 789.115 23.3731 789.101 22.6981C789.096 22.0241 789.067 21.2291 789.149 20.3841C789.218 19.5381 789.375 18.6431 789.579 17.7581C789.808 16.8791 790.083 16.0071 790.433 15.2251C790.757 14.4321 791.225 13.7641 791.569 13.1801C791.942 12.6051 792.359 12.1991 792.63 11.9131C792.924 11.6421 793.102 11.5031 793.102 11.5031C793.102 11.5031 792.99 11.7011 792.827 12.0561C792.64 12.3961 792.444 12.9171 792.186 13.5131C791.952 14.1261 791.699 14.836 791.461 15.61C791.227 16.385 790.982 17.2121 790.79 18.0551C790.571 18.8921 790.401 19.7421 790.234 20.5421C790.078 21.3431 789.902 22.0941 789.8 22.7461C789.702 23.3981 789.561 23.944 789.504 24.33C789.42 24.716 789.373 24.9371 789.373 24.9371Z" fill="#AAC482"/>
</g>
<path d="M797.675 5.05505H792.46C791.898 5.05505 791.442 5.51106 791.442 6.07306V10.7721H798.694V6.07306C798.694 5.51006 798.238 5.05505 797.675 5.05505Z" fill="#1D262D"/>
<path d="M917.377 39.7911C917.377 48.3711 914.027 55.3211 909.887 55.3211C908.517 55.3211 907.237 54.5611 906.147 53.2311C903.907 50.5411 902.407 45.5311 902.407 39.7911C902.407 31.2211 905.757 24.2711 909.887 24.2711C914.027 24.2711 917.377 31.2211 917.377 39.7911Z" fill="#AAC482"/>
<path opacity="0.5" d="M917.377 39.7911C917.377 48.3711 914.027 55.3211 909.887 55.3211C908.517 55.3211 907.237 54.5611 906.147 53.2311C915.017 52.5811 917.377 39.7911 917.377 39.7911Z" fill="#AAC482"/>
<g opacity="0.5">
<path d="M904.197 40.3721C904.197 40.3721 904.156 40.1491 904.084 39.7601C904.04 39.3701 903.939 38.8081 903.925 38.1331C903.92 37.4591 903.891 36.6641 903.973 35.8201C904.042 34.9741 904.199 34.0791 904.403 33.1941C904.632 32.3151 904.907 31.4431 905.257 30.6611C905.581 29.8681 906.049 29.2001 906.393 28.6161C906.766 28.0411 907.183 27.6351 907.454 27.3491C907.748 27.0781 907.926 26.9391 907.926 26.9391C907.926 26.9391 907.814 27.1371 907.651 27.4921C907.464 27.8321 907.268 28.3531 907.01 28.9491C906.776 29.5621 906.523 30.2731 906.285 31.0461C906.051 31.8201 905.806 32.6481 905.614 33.4911C905.395 34.3281 905.225 35.1781 905.058 35.9781C904.902 36.7791 904.726 37.5301 904.624 38.1821C904.526 38.8341 904.385 39.3801 904.328 39.7661C904.243 40.1511 904.197 40.3721 904.197 40.3721Z" fill="#AAC482"/>
</g>
<path d="M912.499 20.4901H907.283C906.721 20.4901 906.265 20.9461 906.265 21.5081V26.2071H913.517V21.5081C913.517 20.9461 913.061 20.4901 912.499 20.4901Z" fill="#1D262D"/>
<path d="M1072.48 36.0261C1072.48 44.6061 1069.13 51.5561 1064.99 51.5561C1063.62 51.5561 1062.34 50.7961 1061.25 49.4661C1059.01 46.7761 1057.51 41.7661 1057.51 36.0261C1057.51 27.4561 1060.86 20.5061 1064.99 20.5061C1069.13 20.5071 1072.48 27.4561 1072.48 36.0261Z" fill="#AAC482"/>
<path opacity="0.5" d="M1072.48 36.0261C1072.48 44.6061 1069.13 51.5561 1064.99 51.5561C1063.62 51.5561 1062.34 50.7961 1061.25 49.4661C1070.12 48.8161 1072.48 36.0261 1072.48 36.0261Z" fill="#AAC482"/>
<g opacity="0.5">
<path d="M1059.3 36.6071C1059.3 36.6071 1059.26 36.3841 1059.19 35.9951C1059.15 35.6051 1059.04 35.0431 1059.03 34.3681C1059.03 33.6941 1059 32.8991 1059.08 32.0551C1059.15 31.2091 1059.3 30.3141 1059.51 29.4291C1059.74 28.5501 1060.01 27.6781 1060.36 26.8961C1060.69 26.1031 1061.15 25.4351 1061.5 24.8511C1061.87 24.2761 1062.29 23.8701 1062.56 23.5841C1062.85 23.3131 1063.03 23.1741 1063.03 23.1741C1063.03 23.1741 1062.92 23.3721 1062.76 23.7271C1062.57 24.0671 1062.37 24.5881 1062.12 25.1841C1061.88 25.7971 1061.63 26.5071 1061.39 27.2811C1061.16 28.0551 1060.91 28.8831 1060.72 29.7261C1060.5 30.5631 1060.33 31.4131 1060.16 32.2131C1060.01 33.0141 1059.83 33.7651 1059.73 34.4171C1059.63 35.0691 1059.49 35.6151 1059.43 36.0011C1059.35 36.3871 1059.3 36.6071 1059.3 36.6071Z" fill="#AAC482"/>
</g>
<path d="M1067.6 16.7251H1062.39C1061.83 16.7251 1061.37 17.1811 1061.37 17.7431V22.4421H1068.62V17.7431C1068.62 17.1811 1068.17 16.7251 1067.6 16.7251Z" fill="#1D262D"/>
<path d="M878.789 25.3911C878.789 33.9711 875.439 40.9211 871.299 40.9211C869.929 40.9211 868.649 40.1611 867.559 38.8311C865.319 36.1411 863.819 31.1311 863.819 25.3911C863.819 16.8211 867.169 9.87109 871.299 9.87109C875.439 9.87109 878.789 16.8211 878.789 25.3911Z" fill="#F4C159"/>
<path opacity="0.5" d="M878.789 25.3911C878.789 33.9711 875.439 40.9211 871.299 40.9211C869.929 40.9211 868.649 40.1611 867.559 38.8311C876.429 38.1811 878.789 25.3911 878.789 25.3911Z" fill="#AAC482"/>
<g opacity="0.5">
<path d="M865.609 25.9721C865.609 25.9721 865.568 25.7491 865.496 25.3601C865.452 24.9701 865.351 24.4081 865.337 23.7331C865.332 23.0591 865.303 22.2641 865.385 21.4201C865.454 20.5741 865.611 19.6791 865.815 18.7941C866.044 17.9151 866.319 17.0431 866.669 16.2611C866.993 15.4681 867.461 14.8001 867.805 14.2161C868.178 13.6411 868.595 13.2351 868.866 12.9491C869.16 12.6781 869.338 12.5391 869.338 12.5391C869.338 12.5391 869.226 12.7371 869.063 13.0921C868.876 13.4321 868.68 13.9531 868.422 14.5491C868.188 15.1621 867.935 15.8721 867.697 16.6461C867.463 17.4201 867.218 18.2481 867.026 19.0911C866.807 19.9281 866.637 20.7781 866.47 21.5781C866.314 22.3791 866.138 23.1301 866.035 23.7821C865.937 24.4341 865.796 24.9801 865.739 25.3661C865.655 25.7511 865.609 25.9721 865.609 25.9721Z" fill="#AAC482"/>
</g>
<path d="M873.91 6.09009H868.695C868.133 6.09009 867.677 6.54609 867.677 7.10809V11.8071H874.929V7.10809C874.929 6.54609 874.473 6.09009 873.91 6.09009Z" fill="#1D262D"/>
<path d="M1109.43 21.301C1109.43 29.881 1106.08 36.831 1101.94 36.831C1100.57 36.831 1099.29 36.071 1098.2 34.741C1095.96 32.051 1094.46 27.041 1094.46 21.301C1094.46 12.731 1097.81 5.78101 1101.94 5.78101C1106.08 5.78101 1109.43 12.731 1109.43 21.301Z" fill="#F4C159"/>
<path opacity="0.5" d="M1109.43 21.301C1109.43 29.881 1106.08 36.831 1101.94 36.831C1100.57 36.831 1099.29 36.071 1098.2 34.741C1107.07 34.091 1109.43 21.301 1109.43 21.301Z" fill="#AAC482"/>
<g opacity="0.5">
<path d="M1096.25 21.882C1096.25 21.882 1096.2 21.659 1096.13 21.27C1096.09 20.88 1095.99 20.318 1095.97 19.643C1095.97 18.969 1095.94 18.174 1096.02 17.33C1096.09 16.484 1096.25 15.589 1096.45 14.704C1096.68 13.825 1096.96 12.953 1097.31 12.171C1097.63 11.378 1098.1 10.71 1098.44 10.126C1098.81 9.55101 1099.23 9.14501 1099.5 8.85901C1099.8 8.58801 1099.97 8.44901 1099.97 8.44901C1099.97 8.44901 1099.86 8.64701 1099.7 9.00201C1099.51 9.34201 1099.32 9.86301 1099.06 10.459C1098.82 11.072 1098.57 11.782 1098.33 12.556C1098.1 13.33 1097.85 14.158 1097.66 15.001C1097.44 15.838 1097.27 16.688 1097.11 17.488C1096.95 18.289 1096.77 19.04 1096.67 19.692C1096.57 20.344 1096.43 20.89 1096.38 21.276C1096.29 21.661 1096.25 21.882 1096.25 21.882Z" fill="#AAC482"/>
</g>
<path d="M1104.55 2H1099.33C1098.77 2 1098.31 2.45601 1098.31 3.01801V7.71701H1105.57V3.01801C1105.57 2.45601 1105.11 2 1104.55 2Z" fill="#1D262D"/>
<path d="M995.871 38.9441C995.871 47.5241 992.521 54.4741 988.381 54.4741C987.011 54.4741 985.731 53.7141 984.641 52.3841C982.401 49.6941 980.901 44.6841 980.901 38.9441C980.901 30.3741 984.251 23.4241 988.381 23.4241C992.521 23.4241 995.871 30.3741 995.871 38.9441Z" fill="#F4C159"/>
<path opacity="0.5" d="M995.871 38.9441C995.871 47.5241 992.521 54.4741 988.381 54.4741C987.011 54.4741 985.731 53.7141 984.641 52.3841C993.511 51.7341 995.871 38.9441 995.871 38.9441Z" fill="#AAC482"/>
<g opacity="0.5">
<path d="M982.691 39.5251C982.691 39.5251 982.65 39.3021 982.578 38.9131C982.534 38.5231 982.433 37.9611 982.419 37.2861C982.414 36.6121 982.385 35.8171 982.467 34.9731C982.536 34.1271 982.693 33.232 982.897 32.347C983.126 31.468 983.401 30.5961 983.751 29.8141C984.075 29.0211 984.543 28.3531 984.887 27.7691C985.26 27.1941 985.677 26.7881 985.948 26.5021C986.242 26.2311 986.42 26.0921 986.42 26.0921C986.42 26.0921 986.308 26.2901 986.145 26.6451C985.958 26.9851 985.762 27.5061 985.504 28.1021C985.27 28.7151 985.017 29.4251 984.779 30.1991C984.545 30.9731 984.3 31.8011 984.107 32.6441C983.888 33.4811 983.718 34.3311 983.551 35.1311C983.395 35.9321 983.219 36.6831 983.117 37.3351C983.019 37.9871 982.878 38.5331 982.821 38.9191C982.737 39.3041 982.691 39.5251 982.691 39.5251Z" fill="#AAC482"/>
</g>
<path d="M990.993 19.6431H985.777C985.215 19.6431 984.759 20.0991 984.759 20.6611V25.36H992.011V20.6611C992.011 20.0991 991.555 19.6431 990.993 19.6431Z" fill="#1D262D"/>
<path d="M955.965 25.0151C955.965 33.5951 952.615 40.5451 948.475 40.5451C947.105 40.5451 945.825 39.7851 944.735 38.4551C942.495 35.7651 940.995 30.7551 940.995 25.0151C940.995 16.4451 944.345 9.49512 948.475 9.49512C952.616 9.49512 955.965 16.4451 955.965 25.0151Z" fill="#BC4B5F"/>
<path opacity="0.5" d="M955.965 25.0151C955.965 33.5951 952.615 40.5451 948.475 40.5451C947.105 40.5451 945.825 39.7851 944.735 38.4551C953.606 37.8051 955.965 25.0151 955.965 25.0151Z" fill="#AAC482"/>
<g opacity="0.5">
<path d="M942.785 25.5961C942.785 25.5961 942.744 25.3731 942.672 24.9841C942.628 24.5941 942.527 24.0321 942.513 23.3571C942.508 22.6831 942.479 21.8881 942.561 21.0441C942.63 20.1981 942.787 19.3031 942.991 18.4171C943.22 17.5381 943.495 16.6661 943.845 15.8841C944.169 15.0911 944.637 14.4231 944.981 13.8391C945.354 13.2641 945.771 12.8581 946.042 12.5721C946.336 12.3011 946.514 12.1621 946.514 12.1621C946.514 12.1621 946.402 12.3601 946.239 12.7151C946.053 13.0551 945.856 13.5761 945.598 14.1721C945.363 14.7851 945.111 15.4951 944.873 16.2691C944.639 17.0441 944.394 17.8711 944.201 18.7141C943.982 19.5511 943.812 20.4011 943.645 21.2011C943.489 22.0021 943.313 22.7531 943.211 23.4051C943.113 24.0571 942.972 24.6031 942.915 24.9891C942.831 25.3751 942.785 25.5961 942.785 25.5961Z" fill="#AAC482"/>
</g>
<path d="M951.087 5.71313H945.872C945.31 5.71313 944.854 6.16911 944.854 6.73111V11.4301H952.106V6.73111C952.105 6.16911 951.649 5.71313 951.087 5.71313Z" fill="#1D262D"/>
<path d="M761.937 35.942C761.709 44.519 758.175 51.377 754.037 51.267C752.668 51.231 751.408 50.437 750.354 49.078C748.186 46.329 746.82 41.281 746.973 35.543C747.201 26.976 750.734 20.118 754.863 20.227C759 20.339 762.164 27.375 761.937 35.942Z" fill="#BC4B5F"/>
<path opacity="0.5" d="M761.937 35.942C761.709 44.519 758.175 51.377 754.037 51.267C752.668 51.231 751.408 50.437 750.354 49.078C759.238 48.665 761.937 35.942 761.937 35.942Z" fill="#AAC482"/>
<g opacity="0.5">
<path d="M748.745 36.173C748.745 36.173 748.71 35.949 748.648 35.558C748.615 35.167 748.528 34.603 748.532 33.927C748.545 33.253 748.537 32.458 748.641 31.616C748.732 30.772 748.913 29.882 749.141 29.002C749.393 28.129 749.691 27.265 750.062 26.492C750.407 25.708 750.893 25.052 751.252 24.478C751.64 23.913 752.067 23.518 752.346 23.239C752.647 22.976 752.828 22.841 752.828 22.841C752.828 22.841 752.711 23.035 752.538 23.387C752.343 23.722 752.133 24.238 751.858 24.826C751.607 25.432 751.336 26.136 751.077 26.903C750.822 27.671 750.556 28.491 750.341 29.329C750.1 30.16 749.908 31.005 749.719 31.8C749.542 32.596 749.346 33.342 749.226 33.992C749.111 34.641 748.955 35.183 748.887 35.567C748.797 35.953 748.745 36.173 748.745 36.173Z" fill="#AAC482"/>
</g>
<path d="M757.573 16.518L752.359 16.379C751.797 16.364 751.329 16.808 751.314 17.37L751.189 22.068L758.438 22.261L758.563 17.563C758.579 17.001 758.135 16.533 757.573 16.518Z" fill="#1D262D"/>
<path d="M1032.77 23.132C1032.77 31.712 1029.42 38.662 1025.28 38.662C1023.91 38.662 1022.63 37.9021 1021.54 36.5721C1019.3 33.8821 1017.8 28.872 1017.8 23.132C1017.8 14.562 1021.15 7.61206 1025.28 7.61206C1029.42 7.61206 1032.77 14.562 1032.77 23.132Z" fill="#008683"/>
<path opacity="0.5" d="M1032.77 23.132C1032.77 31.712 1029.42 38.662 1025.28 38.662C1023.91 38.662 1022.63 37.9021 1021.54 36.5721C1030.41 35.9221 1032.77 23.132 1032.77 23.132Z" fill="#AAC482"/>
<g opacity="0.5">
<path d="M1019.59 23.7131C1019.59 23.7131 1019.54 23.4901 1019.47 23.1011C1019.43 22.7111 1019.33 22.1491 1019.31 21.4741C1019.31 20.8001 1019.28 20.0051 1019.36 19.1611C1019.43 18.3151 1019.59 17.4201 1019.79 16.5351C1020.02 15.6561 1020.3 14.7841 1020.65 14.0021C1020.97 13.2091 1021.44 12.5411 1021.78 11.9571C1022.15 11.3821 1022.57 10.9761 1022.84 10.6901C1023.14 10.4191 1023.31 10.2801 1023.31 10.2801C1023.31 10.2801 1023.2 10.4781 1023.04 10.8331C1022.85 11.1731 1022.66 11.6941 1022.4 12.2901C1022.16 12.9031 1021.91 13.6131 1021.67 14.3871C1021.44 15.1611 1021.19 15.9891 1021 16.8321C1020.78 17.6691 1020.61 18.5191 1020.45 19.3191C1020.29 20.1201 1020.11 20.871 1020.01 21.524C1019.91 22.176 1019.77 22.7221 1019.72 23.1081C1019.63 23.4921 1019.59 23.7131 1019.59 23.7131Z" fill="#AAC482"/>
</g>
<path d="M1027.89 3.83105H1022.67C1022.11 3.83105 1021.65 4.28706 1021.65 4.84906V9.54807H1028.91V4.84906C1028.91 4.28706 1028.45 3.83105 1027.89 3.83105Z" fill="#1D262D"/>
<path d="M843.401 38.9441C843.401 47.5241 840.051 54.4741 835.911 54.4741C834.541 54.4741 833.261 53.7141 832.171 52.3841C829.931 49.6941 828.431 44.6841 828.431 38.9441C828.431 30.3741 831.781 23.4241 835.911 23.4241C840.051 23.4241 843.401 30.3741 843.401 38.9441Z" fill="#008683"/>
<path opacity="0.5" d="M843.401 38.9441C843.401 47.5241 840.051 54.4741 835.911 54.4741C834.541 54.4741 833.261 53.7141 832.171 52.3841C841.041 51.7341 843.401 38.9441 843.401 38.9441Z" fill="#AAC482"/>
<g opacity="0.5">
<path d="M830.22 39.5251C830.22 39.5251 830.179 39.3021 830.107 38.9131C830.063 38.5231 829.962 37.9611 829.948 37.2861C829.943 36.6121 829.914 35.8171 829.996 34.9731C830.065 34.1271 830.222 33.232 830.426 32.347C830.655 31.468 830.93 30.5961 831.28 29.8141C831.604 29.0211 832.072 28.3531 832.416 27.7691C832.789 27.1941 833.206 26.7881 833.477 26.5021C833.771 26.2311 833.949 26.0921 833.949 26.0921C833.949 26.0921 833.837 26.2901 833.674 26.6451C833.487 26.9851 833.291 27.5061 833.033 28.1021C832.799 28.7151 832.546 29.4251 832.308 30.1991C832.074 30.9731 831.829 31.8011 831.637 32.6441C831.418 33.4811 831.248 34.3311 831.081 35.1311C830.925 35.9321 830.749 36.6831 830.647 37.3351C830.549 37.9871 830.408 38.5331 830.351 38.9191C830.267 39.3041 830.22 39.5251 830.22 39.5251Z" fill="#AAC482"/>
</g>
<path d="M838.522 19.6431H833.306C832.744 19.6431 832.288 20.0991 832.288 20.6611V25.36H839.54V20.6611C839.541 20.0991 839.085 19.6431 838.522 19.6431Z" fill="#1D262D"/>
<path d="M1101.46 2.06592C1123.35 20.5589 1155.05 21.6739 1178.19 4.76392C1200.43 22.8379 1232.14 23.3509 1254.96 6.00592H1254.96C1277.54 23.6549 1309.26 23.5669 1331.74 5.79294L1331.74 5.79193C1354.65 23.0099 1386.36 22.3209 1408.5 4.12393H1408.5C1431.73 20.9049 1463.17 21.114 1484.96 2.5" stroke="black" stroke-width="1.0556" stroke-miterlimit="10"/>
<path d="M1186.01 23.3289C1186.01 31.9089 1182.66 38.8589 1178.52 38.8589C1177.15 38.8589 1175.87 38.099 1174.78 36.769C1172.54 34.079 1171.04 29.0689 1171.04 23.3289C1171.04 14.7589 1174.39 7.80896 1178.52 7.80896C1182.66 7.80896 1186.01 14.7589 1186.01 23.3289Z" fill="#AAC482"/>
<path opacity="0.5" d="M1186.01 23.3289C1186.01 31.9089 1182.66 38.8589 1178.52 38.8589C1177.15 38.8589 1175.87 38.099 1174.78 36.769C1183.65 36.119 1186.01 23.3289 1186.01 23.3289Z" fill="#AAC482"/>
<g opacity="0.5">
<path d="M1172.83 23.91C1172.83 23.91 1172.79 23.687 1172.72 23.298C1172.67 22.908 1172.57 22.346 1172.56 21.671C1172.55 20.997 1172.52 20.202 1172.6 19.357C1172.67 18.511 1172.83 17.616 1173.03 16.731C1173.26 15.852 1173.54 14.98 1173.89 14.198C1174.21 13.405 1174.68 12.737 1175.02 12.153C1175.4 11.578 1175.81 11.172 1176.09 10.886C1176.38 10.615 1176.56 10.476 1176.56 10.476C1176.56 10.476 1176.45 10.674 1176.28 11.029C1176.1 11.369 1175.9 11.89 1175.64 12.486C1175.41 13.099 1175.15 13.8089 1174.92 14.5829C1174.68 15.3579 1174.44 16.185 1174.25 17.028C1174.03 17.865 1173.86 18.715 1173.69 19.515C1173.53 20.316 1173.36 21.067 1173.26 21.719C1173.16 22.371 1173.02 22.9169 1172.96 23.3029C1172.88 23.6889 1172.83 23.91 1172.83 23.91Z" fill="#AAC482"/>
</g>
<path d="M1181.13 4.02795H1175.92C1175.35 4.02795 1174.9 4.48396 1174.9 5.04596V9.74496H1182.15V5.04596C1182.15 4.48296 1181.69 4.02795 1181.13 4.02795Z" fill="#1D262D"/>
<path d="M1300.83 38.764C1300.83 47.344 1297.48 54.294 1293.34 54.294C1291.97 54.294 1290.69 53.534 1289.6 52.204C1287.36 49.514 1285.86 44.504 1285.86 38.764C1285.86 30.194 1289.21 23.244 1293.34 23.244C1297.48 23.244 1300.83 30.194 1300.83 38.764Z" fill="#AAC482"/>
<path opacity="0.5" d="M1300.83 38.764C1300.83 47.344 1297.48 54.294 1293.34 54.294C1291.97 54.294 1290.69 53.534 1289.6 52.204C1298.47 51.554 1300.83 38.764 1300.83 38.764Z" fill="#AAC482"/>
<g opacity="0.5">
<path d="M1287.65 39.345C1287.65 39.345 1287.61 39.122 1287.54 38.733C1287.5 38.343 1287.39 37.781 1287.38 37.106C1287.38 36.432 1287.35 35.637 1287.43 34.793C1287.5 33.947 1287.65 33.052 1287.86 32.167C1288.09 31.288 1288.36 30.416 1288.71 29.634C1289.04 28.841 1289.5 28.173 1289.85 27.589C1290.22 27.014 1290.64 26.608 1290.91 26.322C1291.2 26.051 1291.38 25.912 1291.38 25.912C1291.38 25.912 1291.27 26.11 1291.11 26.465C1290.92 26.805 1290.72 27.326 1290.47 27.922C1290.23 28.535 1289.98 29.246 1289.74 30.019C1289.51 30.793 1289.26 31.621 1289.07 32.464C1288.85 33.301 1288.68 34.151 1288.51 34.951C1288.36 35.752 1288.18 36.503 1288.08 37.155C1287.98 37.807 1287.84 38.353 1287.78 38.739C1287.7 39.124 1287.65 39.345 1287.65 39.345Z" fill="#AAC482"/>
</g>
<path d="M1295.95 19.463H1290.74C1290.18 19.463 1289.72 19.919 1289.72 20.481V25.18H1296.97V20.481C1296.97 19.919 1296.52 19.463 1295.95 19.463Z" fill="#1D262D"/>
<path d="M1262.24 24.364C1262.24 32.944 1258.89 39.894 1254.75 39.894C1253.38 39.894 1252.1 39.134 1251.01 37.804C1248.77 35.114 1247.27 30.104 1247.27 24.364C1247.27 15.794 1250.62 8.84399 1254.75 8.84399C1258.89 8.84399 1262.24 15.794 1262.24 24.364Z" fill="#F4C159"/>
<path opacity="0.5" d="M1262.24 24.364C1262.24 32.944 1258.89 39.894 1254.75 39.894C1253.38 39.894 1252.1 39.134 1251.01 37.804C1259.88 37.154 1262.24 24.364 1262.24 24.364Z" fill="#AAC482"/>
<g opacity="0.5">
<path d="M1249.06 24.945C1249.06 24.945 1249.02 24.722 1248.95 24.333C1248.91 23.943 1248.81 23.381 1248.79 22.706C1248.79 22.032 1248.76 21.237 1248.84 20.393C1248.91 19.547 1249.07 18.652 1249.27 17.767C1249.5 16.888 1249.77 16.016 1250.12 15.234C1250.45 14.441 1250.92 13.773 1251.26 13.189C1251.63 12.614 1252.05 12.208 1252.32 11.922C1252.61 11.651 1252.79 11.512 1252.79 11.512C1252.79 11.512 1252.68 11.71 1252.52 12.065C1252.33 12.405 1252.13 12.926 1251.88 13.522C1251.64 14.135 1251.39 14.845 1251.15 15.619C1250.92 16.393 1250.67 17.221 1250.48 18.064C1250.26 18.901 1250.09 19.751 1249.92 20.551C1249.77 21.352 1249.59 22.103 1249.49 22.755C1249.39 23.407 1249.25 23.953 1249.19 24.339C1249.11 24.724 1249.06 24.945 1249.06 24.945Z" fill="#AAC482"/>
</g>
<path d="M1257.36 5.06299H1252.15C1251.59 5.06299 1251.13 5.51899 1251.13 6.08099V10.78H1258.38V6.08099C1258.38 5.51899 1257.93 5.06299 1257.36 5.06299Z" fill="#1D262D"/>
<path d="M1379.33 37.917C1379.33 46.497 1375.98 53.447 1371.84 53.447C1370.47 53.447 1369.19 52.687 1368.1 51.357C1365.86 48.667 1364.36 43.657 1364.36 37.917C1364.36 29.347 1367.71 22.397 1371.84 22.397C1375.98 22.397 1379.33 29.347 1379.33 37.917Z" fill="#F4C159"/>
<path opacity="0.5" d="M1379.33 37.917C1379.33 46.497 1375.98 53.447 1371.84 53.447C1370.47 53.447 1369.19 52.687 1368.1 51.357C1376.97 50.707 1379.33 37.917 1379.33 37.917Z" fill="#AAC482"/>
<g opacity="0.5">
<path d="M1366.15 38.498C1366.15 38.498 1366.1 38.275 1366.03 37.886C1365.99 37.496 1365.89 36.934 1365.87 36.259C1365.87 35.585 1365.84 34.79 1365.92 33.946C1365.99 33.1 1366.15 32.2049 1366.35 31.3199C1366.58 30.4409 1366.86 29.569 1367.21 28.787C1367.53 27.994 1368 27.326 1368.34 26.742C1368.71 26.167 1369.13 25.761 1369.4 25.475C1369.7 25.204 1369.87 25.065 1369.87 25.065C1369.87 25.065 1369.76 25.263 1369.6 25.618C1369.41 25.958 1369.22 26.479 1368.96 27.075C1368.72 27.688 1368.47 28.398 1368.23 29.172C1368 29.946 1367.75 30.774 1367.56 31.617C1367.34 32.454 1367.17 33.304 1367.01 34.104C1366.85 34.905 1366.67 35.656 1366.57 36.308C1366.47 36.96 1366.33 37.506 1366.28 37.892C1366.19 38.277 1366.15 38.498 1366.15 38.498Z" fill="#AAC482"/>
</g>
<path d="M1374.45 18.616H1369.23C1368.67 18.616 1368.21 19.072 1368.21 19.634V24.3329H1375.47V19.634C1375.47 19.072 1375.01 18.616 1374.45 18.616Z" fill="#1D262D"/>
<path d="M1339.42 23.988C1339.42 32.568 1336.07 39.518 1331.93 39.518C1330.56 39.518 1329.28 38.758 1328.19 37.428C1325.95 34.738 1324.45 29.728 1324.45 23.988C1324.45 15.418 1327.8 8.46802 1331.93 8.46802C1336.07 8.46802 1339.42 15.418 1339.42 23.988Z" fill="#BC4B5F"/>
<path opacity="0.5" d="M1339.42 23.988C1339.42 32.568 1336.07 39.518 1331.93 39.518C1330.56 39.518 1329.28 38.758 1328.19 37.428C1337.06 36.778 1339.42 23.988 1339.42 23.988Z" fill="#AAC482"/>
<g opacity="0.5">
<path d="M1326.24 24.569C1326.24 24.569 1326.2 24.346 1326.13 23.957C1326.08 23.567 1325.98 23.005 1325.97 22.33C1325.96 21.656 1325.93 20.861 1326.02 20.017C1326.09 19.171 1326.24 18.276 1326.45 17.39C1326.68 16.511 1326.95 15.639 1327.3 14.857C1327.62 14.064 1328.09 13.396 1328.44 12.812C1328.81 12.237 1329.23 11.831 1329.5 11.545C1329.79 11.274 1329.97 11.135 1329.97 11.135C1329.97 11.135 1329.86 11.333 1329.69 11.688C1329.51 12.028 1329.31 12.549 1329.05 13.145C1328.82 13.758 1328.57 14.468 1328.33 15.242C1328.09 16.017 1327.85 16.844 1327.66 17.687C1327.44 18.524 1327.27 19.374 1327.1 20.174C1326.94 20.975 1326.77 21.726 1326.67 22.378C1326.57 23.03 1326.43 23.576 1326.37 23.962C1326.29 24.348 1326.24 24.569 1326.24 24.569Z" fill="#AAC482"/>
</g>
<path d="M1334.54 4.68604H1329.33C1328.77 4.68604 1328.31 5.14201 1328.31 5.70401V10.403H1335.56V5.70401C1335.56 5.14201 1335.1 4.68604 1334.54 4.68604Z" fill="#1D262D"/>
<path d="M1145.39 34.9149C1145.16 43.4919 1141.63 50.3499 1137.49 50.2399C1136.12 50.2039 1134.86 49.4099 1133.81 48.0509C1131.64 45.3019 1130.28 40.2539 1130.43 34.5159C1130.66 25.9489 1134.19 19.0909 1138.32 19.1999C1142.46 19.3119 1145.62 26.3479 1145.39 34.9149Z" fill="#BC4B5F"/>
<path opacity="0.5" d="M1145.39 34.9149C1145.16 43.4919 1141.63 50.3499 1137.49 50.2399C1136.12 50.2039 1134.86 49.4099 1133.81 48.0509C1142.69 47.6379 1145.39 34.9149 1145.39 34.9149Z" fill="#AAC482"/>
<g opacity="0.5">
<path d="M1132.2 35.1459C1132.2 35.1459 1132.17 34.9219 1132.1 34.5309C1132.07 34.1399 1131.98 33.5759 1131.99 32.8999C1132 32.2259 1131.99 31.4309 1132.1 30.5889C1132.19 29.7449 1132.37 28.8549 1132.6 27.9749C1132.85 27.1019 1133.15 26.2379 1133.52 25.4649C1133.86 24.6809 1134.35 24.0249 1134.71 23.4509C1135.1 22.8859 1135.52 22.4909 1135.8 22.2119C1136.1 21.9489 1136.28 21.8139 1136.28 21.8139C1136.28 21.8139 1136.17 22.0079 1135.99 22.3599C1135.8 22.6949 1135.59 23.2109 1135.31 23.7989C1135.06 24.4049 1134.79 25.1089 1134.53 25.8759C1134.28 26.6439 1134.01 27.4639 1133.8 28.3019C1133.56 29.1329 1133.36 29.9779 1133.17 30.7729C1133 31.5689 1132.8 32.3149 1132.68 32.9649C1132.57 33.6139 1132.41 34.1559 1132.34 34.5399C1132.25 34.9259 1132.2 35.1459 1132.2 35.1459Z" fill="#AAC482"/>
</g>
<path d="M1141.03 15.4909L1135.81 15.3519C1135.25 15.3369 1134.78 15.7809 1134.77 16.3429L1134.64 21.0409L1141.89 21.2339L1142.02 16.5359C1142.03 15.9739 1141.59 15.5059 1141.03 15.4909Z" fill="#1D262D"/>
<path d="M1416.22 22.1049C1416.22 30.6849 1412.87 37.6349 1408.73 37.6349C1407.36 37.6349 1406.08 36.875 1404.99 35.545C1402.75 32.855 1401.25 27.8449 1401.25 22.1049C1401.25 13.535 1404.6 6.58496 1408.73 6.58496C1412.87 6.58496 1416.22 13.535 1416.22 22.1049Z" fill="#008683"/>
<path opacity="0.5" d="M1416.22 22.1049C1416.22 30.6849 1412.87 37.6349 1408.73 37.6349C1407.36 37.6349 1406.08 36.875 1404.99 35.545C1413.86 34.895 1416.22 22.1049 1416.22 22.1049Z" fill="#AAC482"/>
<g opacity="0.5">
<path d="M1403.04 22.686C1403.04 22.686 1403 22.463 1402.93 22.074C1402.88 21.684 1402.78 21.122 1402.77 20.447C1402.76 19.773 1402.73 18.978 1402.82 18.134C1402.89 17.288 1403.04 16.393 1403.25 15.508C1403.48 14.629 1403.75 13.757 1404.1 12.975C1404.43 12.182 1404.89 11.514 1405.24 10.93C1405.61 10.355 1406.03 9.94896 1406.3 9.66296C1406.59 9.39196 1406.77 9.25296 1406.77 9.25296C1406.77 9.25296 1406.66 9.45097 1406.49 9.80597C1406.31 10.146 1406.11 10.667 1405.85 11.263C1405.62 11.876 1405.37 12.586 1405.13 13.36C1404.89 14.134 1404.65 14.962 1404.46 15.805C1404.24 16.642 1404.07 17.492 1403.9 18.292C1403.74 19.093 1403.57 19.8439 1403.47 20.4969C1403.37 21.1489 1403.23 21.695 1403.17 22.081C1403.09 22.465 1403.04 22.686 1403.04 22.686Z" fill="#AAC482"/>
</g>
<path d="M1411.34 2.80396H1406.13C1405.56 2.80396 1405.11 3.25996 1405.11 3.82196V8.52097H1412.36V3.82196C1412.36 3.25996 1411.9 2.80396 1411.34 2.80396Z" fill="#1D262D"/>
<path d="M1226.86 37.917C1226.86 46.497 1223.51 53.447 1219.37 53.447C1218 53.447 1216.72 52.687 1215.63 51.357C1213.39 48.667 1211.89 43.657 1211.89 37.917C1211.89 29.347 1215.24 22.397 1219.37 22.397C1223.51 22.397 1226.86 29.347 1226.86 37.917Z" fill="#008683"/>
<path opacity="0.5" d="M1226.86 37.917C1226.86 46.497 1223.51 53.447 1219.37 53.447C1218 53.447 1216.72 52.687 1215.63 51.357C1224.5 50.707 1226.86 37.917 1226.86 37.917Z" fill="#AAC482"/>
<g opacity="0.5">
<path d="M1213.68 38.498C1213.68 38.498 1213.63 38.275 1213.56 37.886C1213.52 37.496 1213.42 36.934 1213.4 36.259C1213.4 35.585 1213.37 34.79 1213.45 33.946C1213.52 33.1 1213.68 32.2049 1213.88 31.3199C1214.11 30.4409 1214.39 29.569 1214.74 28.787C1215.06 27.994 1215.53 27.326 1215.87 26.742C1216.24 26.167 1216.66 25.761 1216.93 25.475C1217.23 25.204 1217.4 25.065 1217.4 25.065C1217.4 25.065 1217.29 25.263 1217.13 25.618C1216.94 25.958 1216.75 26.479 1216.49 27.075C1216.25 27.688 1216 28.398 1215.76 29.172C1215.53 29.946 1215.28 30.774 1215.09 31.617C1214.87 32.454 1214.7 33.304 1214.54 34.104C1214.38 34.905 1214.2 35.656 1214.1 36.308C1214 36.96 1213.86 37.506 1213.81 37.892C1213.72 38.277 1213.68 38.498 1213.68 38.498Z" fill="#AAC482"/>
</g>
<path d="M1221.98 18.616H1216.76C1216.2 18.616 1215.74 19.072 1215.74 19.634V24.3329H1223V19.634C1223 19.072 1222.54 18.616 1221.98 18.616Z" fill="#1D262D"/>
</svg>
